<svg xmlns="http://www.w3.org/2000/svg" width="36" height="36" viewBox="0 0 36 36" fill="none">
	<path fill-rule="evenodd" clip-rule="evenodd"
		d="M17.9434 0C7.7589 0 -0.501892 8.26079 -0.501892 18.4453C-0.501892 26.593 4.8167 33.4958 12.059 35.9854C12.9643 36.0985 13.3038 35.5327 13.3038 35.0801C13.3038 34.6274 13.3038 33.4958 13.3038 31.9115C8.21154 33.0432 7.07993 29.422 7.07993 29.422C6.2878 27.2719 5.04302 26.7061 5.04302 26.7061C3.3456 25.5745 5.15618 25.5745 5.15618 25.5745C6.96677 25.6877 7.98522 27.4982 7.98522 27.4982C9.68264 30.3273 12.2854 29.5352 13.3038 29.0825C13.417 27.8377 13.9828 27.0456 14.4354 26.593C10.3616 26.1403 6.06148 24.556 6.06148 17.4269C6.06148 15.39 6.74044 13.8057 7.98522 12.4478C7.7589 11.9951 7.19309 10.0714 8.21154 7.58182C8.21154 7.58182 9.7958 7.12918 13.3038 9.50557C14.7749 9.05292 16.3592 8.93976 17.9434 8.93976C19.5277 8.93976 21.112 9.16608 22.5831 9.50557C26.0911 7.12918 27.6753 7.58182 27.6753 7.58182C28.6938 10.0714 28.0148 11.9951 27.9016 12.4478C29.0333 13.6925 29.8254 15.39 29.8254 17.4269C29.8254 24.556 25.5253 26.0271 21.4514 26.4798C22.1304 27.0456 22.6962 28.1772 22.6962 29.8746C22.6962 32.3642 22.6962 34.2879 22.6962 34.9669C22.6962 35.4196 23.0357 35.9854 23.941 35.8722C31.2965 33.3826 36.5019 26.4798 36.5019 18.3322C36.3888 8.26079 28.128 0 17.9434 0Z"
		fill="#191717" />
</svg>